# xmcd
#
# Track frame offsets: 
#        150
#        14407
#        28357
#        42013
#        58024
#        73210
#        87706
#        101770
#        115159
#        128464
#        143003
#        156008
#        169133
#        183176
#        197990
#        215867
#        229148
#        243942
#        259275
#        273824
#        286982
#        301127
#        315653
#        330630
#        343409
#
# Disc length: 4758 seconds
#
# Revision: 1
# Processed by: cddbd v1.5.2PL0 Copyright (c) Steve Scherf et al.
# Submitted via: ExactAudioCopyFreeDBPlugin 1.0
#
DISCID=7a129419
DTITLE=Various Artist - Really The Blues A Blues History - Vol 1 (189
DTITLE=3-1929) [Cd9] 
DYEAR=2010
DGENRE=blues
TTITLE0=Roan Country Ramblers 1928 - Home Town Blues
TTITLE1=Furry Lewis 1928 - Judge Harsh Blues
TTITLE2=Earl Hines 1928 - Caution Blues
TTITLE3=Clifford Hayes' Louisville Stompers 1928 - Blue Harmony
TTITLE4=Frank Hutchinson 1929 - Cannon Ball Blues
TTITLE5=Dick Justice 1929 - Brown Skin Blues
TTITLE6=Leake County Revelers 1929 - Leake County Blues
TTITLE7=Doc Walsh 1929 - Bathe In That Beautiful Pool
TTITLE8=Leo Soileau 1929 - Easy Rider Blues
TTITLE9=Frankie Jaxon 1929 - Operation Blues
TTITLE10=Sippi Wallace 1929 - I'm Mighty Tight Woman
TTITLE11=Robert Wilkins 1929 - That's No Way To Get Along
TTITLE12=Raymond Barrow 1929 - Walking Blues
TTITLE13=Blues Birdhead 1929 - Don't Mistreat Your Good Boyfriend
TTITLE14=Roy Evans 1929 - Weary Yodelin Blues
TTITLE15=Johnie And Albert Crocket 1929 - Fresno Blues
TTITLE16=Blues Birdhead 1929 - Mena Low Blues
TTITLE17=Blind Blake 1929 - Georgia Bound
TTITLE18=Luke Jordan 1929 - If I Call You Mama
TTITLE19=Memphis Jazzers 1929 - Just Blues
TTITLE20=Toddy Darby 1929 - Lawdy Lawdy Worried Blues
TTITLE21=Blind Roosevelt Graves 1929 - New York Blues
TTITLE22=Lonnie Johnson 1929 - Guitar Blues
TTITLE23=Huerve Duerson 1929 - Avenue Strot
TTITLE24=Cow Davenport 1929 - Slum Gullion Stomp
EXTD=
EXTT0=
EXTT1=
EXTT2=
EXTT3=
EXTT4=
EXTT5=
EXTT6=
EXTT7=
EXTT8=
EXTT9=
EXTT10=
EXTT11=
EXTT12=
EXTT13=
EXTT14=
EXTT15=
EXTT16=
EXTT17=
EXTT18=
EXTT19=
EXTT20=
EXTT21=
EXTT22=
EXTT23=
EXTT24=
PLAYORDER=
